<?xml version="1.0" standalone="no"?>
<!DOCTYPE svg PUBLIC "-//W3C//DTD SVG 20010904//EN"
 "http://www.w3.org/TR/2001/REC-SVG-20010904/DTD/svg10.dtd">
<svg version="1.0" xmlns="http://www.w3.org/2000/svg"
 width="1024.000000pt" height="1024.000000pt" viewBox="0 0 1024.000000 1024.000000"
 preserveAspectRatio="xMidYMid meet">

<g transform="translate(0.000000,1024.000000) scale(0.100000,-0.100000)"
fill="#000000" stroke="none">
<path d="M0 5120 l0 -5120 5120 0 5120 0 0 5120 0 5120 -5120 0 -5120 0 0
-5120z m5194 1461 c31 -18 104 -53 163 -77 72 -29 119 -55 144 -80 31 -30 37
-33 32 -15 -3 12 -9 24 -14 27 -5 3 -9 9 -9 15 0 27 88 -12 134 -59 18 -19 43
-33 68 -37 49 -9 95 -46 103 -86 7 -32 33 -53 78 -64 22 -6 25 -10 16 -21 -15
-18 -1 -17 31 1 35 20 59 18 97 -7 42 -29 43 -61 4 -114 -34 -47 -76 -86 -69
-64 8 22 -10 50 -31 50 -10 0 -26 -9 -37 -21 -10 -11 -26 -25 -34 -29 -13 -7
-15 -3 -12 25 4 32 1 35 -49 60 -64 33 -120 30 -179 -9 -22 -14 -46 -26 -54
-26 -8 0 -18 -4 -21 -10 -4 -6 8 -10 28 -10 29 0 38 -6 62 -42 44 -69 76 -98
106 -98 14 0 32 7 39 15 21 25 30 17 14 -12 -22 -43 -18 -53 17 -46 l31 6 -15
-29 c-27 -52 -87 -94 -135 -94 -13 0 -12 3 6 16 36 25 26 34 -38 34 -57 0 -84
15 -39 22 12 2 27 11 33 20 15 24 -56 105 -120 138 -41 21 -62 25 -139 25 -79
0 -94 -3 -123 -24 l-34 -24 21 40 c23 46 58 72 107 80 54 9 28 23 -43 23 -50
0 -74 5 -101 22 -20 12 -56 27 -82 34 l-45 12 38 7 c22 4 55 3 75 -3 46 -13
178 -4 163 11 -6 6 -32 14 -59 17 l-47 7 65 30 65 31 -60 7 c-70 9 -121 28
-152 57 -27 26 -30 43 -5 33 9 -5 60 -11 113 -14 82 -6 103 -11 138 -34 48
-32 51 -26 15 26 -21 31 -48 49 -142 94 -134 64 -211 132 -254 223 -49 103
-45 110 20 40 33 -36 85 -80 116 -99z m126 46 c30 -32 81 -75 112 -94 32 -20
57 -37 55 -39 -1 -2 -45 12 -97 31 -65 23 -102 43 -117 61 -21 27 -44 95 -42
131 0 15 3 14 17 -7 9 -14 41 -51 72 -83z m-280 -78 c20 -5 57 -30 87 -58 29
-27 85 -65 125 -85 53 -26 68 -37 55 -42 -28 -10 -102 5 -153 32 l-46 25 7
-37 c3 -20 14 -48 23 -62 21 -32 90 -82 114 -82 23 0 23 -6 1 -33 -15 -19 -27
-22 -72 -19 -65 4 -103 -10 -136 -50 -32 -38 -32 -50 3 -37 27 11 96 5 120
-10 9 -5 2 -15 -27 -34 -28 -19 -49 -45 -71 -91 -31 -63 -32 -69 -28 -169 3
-99 5 -108 47 -192 47 -94 110 -164 323 -358 78 -71 104 -101 131 -157 41 -82
62 -188 51 -263 l-7 -52 -12 47 c-43 165 -139 256 -388 368 -132 59 -231 124
-296 195 -53 57 -66 50 -66 -38 0 -50 6 -71 28 -110 l29 -48 -32 16 c-48 25
-104 88 -143 162 -41 80 -57 134 -67 223 l-6 65 -25 -50 c-21 -44 -24 -64 -24
-162 0 -62 -2 -113 -6 -113 -7 0 -38 87 -54 157 -28 116 -13 310 31 395 l16
30 -32 -18 c-54 -32 -141 -134 -176 -208 l-34 -70 0 41 c0 55 23 173 50 253
47 143 164 292 280 358 64 37 52 39 -51 13 -127 -33 -222 -83 -344 -183 l-40
-33 19 30 c79 124 204 236 331 296 107 50 215 73 347 73 60 1 108 4 108 8 0
13 -84 56 -133 70 -37 9 -44 14 -30 20 20 8 120 1 173 -13z m-1010 -348 l0
-108 -69 -6 c-79 -7 -123 -26 -148 -64 -16 -23 -19 -63 -25 -278 -8 -311 -21
-362 -114 -444 l-47 -41 47 -41 c96 -84 116 -164 116 -459 0 -170 3 -200 19
-237 25 -53 65 -75 153 -81 l68 -5 0 -110 0 -110 -137 5 c-114 4 -147 8 -187
27 -78 34 -112 66 -146 134 -35 72 -38 101 -44 402 -4 214 -10 253 -48 308
-22 31 -80 64 -135 75 l-38 8 -3 87 -3 87 28 0 c42 0 127 44 150 76 40 58 45
92 53 369 8 311 16 348 92 422 78 75 129 91 301 92 l117 1 0 -109z m2437 95
c67 -18 114 -47 156 -97 61 -71 69 -113 77 -409 6 -234 9 -270 27 -310 28 -63
80 -106 148 -121 l56 -12 -3 -86 -3 -85 -42 -8 c-79 -13 -133 -57 -164 -133
-8 -19 -15 -125 -19 -295 -8 -315 -15 -346 -95 -426 -70 -70 -117 -85 -282
-91 l-133 -5 0 109 0 110 86 10 c143 18 154 39 154 308 1 293 21 378 115 463
l53 48 -35 24 c-43 29 -85 90 -108 155 -15 40 -19 98 -24 295 -6 205 -9 250
-24 277 -23 43 -61 61 -146 69 l-71 7 0 108 0 109 113 0 c63 0 135 -6 164 -14z
m-707 -278 c142 -109 179 -125 240 -108 48 14 49 13 15 -10 -16 -11 -45 -20
-63 -20 l-33 0 17 -32 c17 -32 17 -33 -2 -18 -10 8 -62 54 -115 102 -54 49
-114 95 -135 102 l-39 15 36 0 c26 1 48 -8 79 -31z m-583 -319 c53 -57 54 -58
30 -64 -53 -14 -71 -3 -94 55 -12 30 -24 78 -27 105 l-7 50 22 -44 c13 -24 47
-70 76 -102z m170 -126 c73 -38 89 -53 55 -53 -11 0 -45 -9 -77 -20 -32 -11
-64 -20 -71 -20 -13 0 -84 85 -84 100 0 8 60 27 89 29 8 1 48 -16 88 -36z
m793 -58 c35 -18 39 -34 7 -28 -37 7 -77 -13 -77 -40 0 -13 -5 -28 -12 -35 -9
-9 -9 -15 0 -24 9 -9 19 -10 42 -1 36 14 67 7 98 -20 17 -16 22 -31 22 -74 0
-29 -4 -53 -10 -53 -5 0 -10 8 -10 17 0 38 -68 81 -85 53 -3 -5 -16 -10 -29
-10 -29 0 -48 -38 -52 -103 -4 -55 19 -87 64 -87 26 -1 26 -1 8 -15 -56 -42
-128 -23 -141 37 l-7 32 -15 -28 c-8 -15 -20 -60 -27 -99 l-12 -72 -6 70 c-4
39 -13 88 -21 110 -14 39 -14 41 14 75 19 22 29 46 29 67 0 28 -5 35 -35 47
-33 14 -35 18 -35 61 0 56 10 77 51 106 l31 22 -16 -31 c-20 -38 -20 -71 -1
-96 12 -16 20 -18 43 -10 22 8 28 16 30 46 7 79 82 119 152 83z m-529 -64 c88
-43 116 -64 162 -119 38 -47 34 -54 -17 -26 -67 37 -141 47 -223 30 -37 -8
-75 -17 -84 -21 -11 -4 -39 14 -88 56 -39 34 -71 65 -71 70 0 4 33 19 73 33
97 34 143 30 248 -23z m-1297 -85 c14 -19 26 -45 26 -59 0 -29 37 -50 63 -35
20 11 24 87 5 106 -9 9 -9 12 1 12 7 0 26 -13 42 -29 39 -40 41 -102 4 -127
-14 -9 -25 -21 -25 -28 0 -6 23 -40 50 -76 l49 -65 -52 -26 -52 -26 -6 33 c-6
33 -25 64 -40 64 -4 0 -5 -15 -2 -33 4 -29 0 -37 -27 -60 -35 -30 -60 -33
-105 -13 l-30 13 31 7 c17 4 42 18 54 31 21 23 22 26 8 42 -8 10 -13 23 -11
30 6 18 -34 53 -60 53 -13 0 -27 4 -33 10 -14 14 -52 -15 -68 -53 l-13 -32 -8
38 c-8 43 8 93 36 108 11 5 37 9 58 7 22 -1 46 4 55 11 13 11 13 16 -3 44 -15
27 -25 33 -62 37 l-44 5 29 23 c18 14 42 22 66 22 31 0 42 -6 64 -34z m1367
-67 c21 -7 54 -25 73 -41 36 -30 96 -136 96 -171 0 -19 -2 -19 -27 6 -43 40
-100 60 -175 60 l-67 0 -51 64 c-50 62 -50 63 -28 72 60 23 123 26 179 10z
m-895 -199 c32 -11 88 -38 124 -59 36 -22 67 -38 69 -36 2 2 -8 24 -22 49 -14
26 -22 46 -18 46 31 0 96 -43 165 -109 87 -84 134 -107 191 -97 44 9 65 39 65
96 l1 45 28 -33 c78 -91 79 -292 2 -401 -20 -28 -28 -31 -74 -31 -67 1 -142
31 -261 109 -52 34 -116 70 -141 81 -70 30 -170 43 -230 30 -27 -6 -57 -12
-67 -14 -37 -5 -107 -77 -140 -144 -30 -61 -33 -75 -33 -157 0 -76 5 -99 27
-148 15 -32 37 -71 48 -88 27 -37 20 -37 -35 1 -57 40 -92 83 -127 157 -64
137 -61 268 10 406 8 16 -18 6 -47 -19 -27 -23 -31 -24 -31 -7 0 30 57 118 99
155 79 67 203 118 289 118 43 0 38 18 -14 47 l-39 23 51 0 c27 0 77 -9 110
-20z m967 -6 c100 -51 129 -135 91 -263 l-15 -53 -20 40 c-21 42 -72 84 -127
103 -19 6 -32 18 -32 28 0 15 -12 65 -36 150 -7 24 -7 24 50 17 32 -3 72 -14
89 -22z m-1658 -154 c-23 -66 -19 -165 9 -225 l24 -50 7 42 c4 24 13 51 21 60
11 16 12 13 7 -22 -6 -51 28 -106 75 -120 31 -9 32 -11 32 -61 0 -29 4 -64 10
-78 12 -34 -7 -34 -75 -2 -166 77 -225 300 -124 471 27 46 33 40 14 -15z
m1412 -58 c64 -136 44 -295 -54 -444 -52 -78 -110 -138 -153 -156 -56 -24
-251 -28 -341 -8 -85 20 -244 91 -174 78 22 -4 94 -7 160 -7 133 1 211 20 313
77 188 106 274 316 208 508 -15 41 -15 43 0 25 9 -11 27 -44 41 -73z m231 -35
c90 -83 66 -178 -82 -322 -68 -66 -196 -164 -196 -150 0 4 15 25 34 48 73 90
145 266 153 377 6 91 7 92 40 79 15 -6 39 -20 51 -32z m308 -271 c-33 -140
-116 -255 -225 -310 l-52 -27 40 54 c23 30 41 56 41 59 0 4 -30 -9 -67 -28
-38 -18 -81 -36 -98 -40 -25 -5 -22 -1 20 24 49 29 142 119 132 128 -7 7 -215
-42 -262 -61 l-40 -16 35 28 c19 15 63 54 98 87 52 50 69 60 92 58 42 -5 100
26 122 65 11 18 22 33 25 33 3 0 2 -18 -2 -41 -7 -40 -6 -41 16 -34 43 13 87
54 111 103 l23 48 3 -32 c2 -17 -4 -61 -12 -98z m-1487 72 c-23 -80 17 -185
106 -274 111 -112 246 -158 455 -158 149 1 260 24 399 82 39 17 71 29 71 27 0
-9 -192 -121 -251 -146 -141 -60 -211 -74 -369 -73 -128 0 -152 3 -205 23
-175 69 -263 174 -273 327 -5 79 7 128 44 187 30 46 35 47 23 5z m111 -813 c0
-62 1 -65 19 -55 29 15 73 12 100 -6 66 -47 66 -191 0 -238 -30 -20 -83 -21
-100 0 -11 14 -13 14 -21 0 -5 -9 -22 -16 -38 -16 l-30 0 0 190 0 190 35 0 35
0 0 -65z m1025 -125 l0 -185 -37 -3 -38 -3 0 191 0 191 38 -3 37 -3 0 -185z
m596 164 c18 -22 -1 -49 -36 -49 -35 0 -54 27 -36 49 8 9 24 16 36 16 12 0 28
-7 36 -16z m-3012 0 c17 -4 45 -19 61 -34 25 -24 30 -36 30 -77 0 -78 -44
-113 -140 -113 l-49 0 -3 -62 -3 -63 -37 -3 -38 -3 0 180 0 181 74 0 c40 0 88
-3 105 -6z m345 -8 c45 -19 66 -52 66 -102 0 -34 -6 -48 -29 -70 l-30 -28 35
-61 c19 -34 34 -67 34 -73 0 -7 -16 -12 -38 -12 -36 0 -39 2 -70 65 -29 58
-35 65 -62 65 l-30 0 0 -66 0 -65 -37 3 -38 3 -3 165 c-1 90 0 170 2 177 7 18
156 17 200 -1z m331 -58 c8 -40 19 -93 24 -118 8 -44 9 -44 16 -15 48 201 48
200 82 203 27 3 33 -1 38 -20 3 -13 16 -66 28 -118 l23 -95 12 65 c7 36 17 89
23 118 l10 52 40 0 c34 0 39 -3 35 -17 -3 -10 -19 -81 -36 -158 -39 -182 -42
-187 -83 -183 -32 3 -32 3 -59 106 -15 57 -28 106 -31 108 -2 2 -11 -31 -21
-74 -10 -42 -24 -92 -32 -110 -12 -29 -17 -33 -46 -30 l-33 3 -37 155 c-47
200 -47 200 -4 200 l35 0 16 -72z m1296 34 c41 -45 39 -72 -5 -72 -25 0 -38 6
-50 25 -29 44 -103 26 -94 -22 2 -12 24 -25 63 -39 79 -28 115 -63 115 -112 0
-20 -7 -45 -14 -54 -17 -23 -77 -48 -115 -48 -49 0 -110 29 -126 61 -24 46
-20 59 20 59 28 0 37 -5 44 -24 15 -38 76 -50 106 -20 24 25 1 51 -70 79 -95
38 -126 91 -91 154 22 39 54 52 125 48 57 -3 67 -6 92 -35z m879 -22 c0 -23 4
-30 20 -30 15 0 20 -7 20 -29 0 -21 -5 -28 -17 -27 -15 1 -18 -10 -21 -72 -3
-70 -2 -72 23 -82 20 -7 26 -16 23 -33 -2 -17 -10 -23 -39 -25 -62 -5 -77 18
-85 126 -6 81 -9 92 -25 92 -14 0 -19 7 -19 25 0 18 5 25 19 25 13 0 20 9 25
30 5 27 10 30 41 30 32 0 35 -2 35 -30z m-1631 -45 c31 -15 48 -51 53 -105 l3
-35 -83 -3 c-89 -3 -100 -13 -49 -42 22 -12 32 -13 59 -2 28 10 35 10 51 -7
19 -19 19 -19 -6 -36 -103 -67 -232 17 -212 138 11 61 60 107 114 107 23 0 55
-7 70 -15z m1012 -2 c82 -49 76 -193 -10 -238 -58 -30 -138 -9 -165 44 -20 38
-20 113 -1 151 29 57 117 78 176 43z m319 -83 c0 -98 0 -100 25 -106 45 -11
55 9 55 112 l0 94 40 0 41 0 -3 -132 -3 -133 -33 -3 c-22 -2 -34 2 -38 12 -5
14 -8 14 -27 1 -31 -22 -72 -18 -103 9 -26 22 -28 29 -32 119 -2 53 -2 103 2
112 3 9 18 15 41 15 l35 0 0 -100z m460 -35 l0 -135 -35 0 -35 0 0 135 0 135
35 0 35 0 0 -135z m251 112 c40 -27 61 -77 54 -131 -7 -52 -20 -73 -58 -96
-134 -82 -265 104 -152 217 27 27 40 33 78 33 29 0 55 -8 78 -23z m169 7 c0
-14 2 -14 22 0 32 22 94 20 117 -3 23 -23 34 -100 28 -186 l-5 -60 -36 -3 -36
-3 0 93 c0 51 -4 99 -9 106 -5 8 -21 12 -37 10 l-29 -3 -5 -100 -5 -100 -37
-3 -38 -3 0 135 0 136 35 0 c25 0 35 -4 35 -16z m404 -9 c37 -34 34 -55 -8
-55 -18 0 -39 7 -46 15 -17 20 -54 15 -58 -7 -2 -12 11 -21 50 -33 69 -23 88
-40 88 -82 0 -41 -27 -70 -75 -79 -67 -12 -145 27 -145 73 0 21 58 15 81 -8
18 -18 50 -19 68 -3 13 11 -15 35 -53 45 -84 21 -113 83 -61 134 35 36 120 36
159 0z m2581 -2994 c16 -74 120 -178 198 -197 35 -8 35 -21 -2 -29 -74 -16
-178 -120 -197 -197 -8 -36 -21 -36 -29 1 -16 74 -120 178 -197 197 -36 8 -36
21 1 29 74 16 178 120 197 198 8 35 21 35 29 -2z"/>
<path d="M5676 6258 c16 -18 29 -34 29 -35 0 0 22 -4 49 -8 l48 -8 -23 27
c-13 15 -45 33 -73 41 -65 20 -64 20 -30 -17z"/>
<path d="M4945 6291 c-128 -46 -237 -129 -289 -222 l-20 -34 33 28 c19 15 36
26 39 23 2 -3 -3 -24 -13 -48 -26 -64 -31 -217 -10 -297 15 -60 49 -136 76
-171 9 -12 10 -11 4 5 -44 120 -57 294 -30 398 31 119 112 231 215 297 41 26
62 43 48 39 -2 0 -25 -8 -53 -18z"/>
<path d="M4683 3723 c-17 -6 -17 -115 -1 -131 18 -18 56 -14 68 7 14 27 13
104 -2 119 -12 12 -43 15 -65 5z"/>
<path d="M3180 3761 l0 -51 44 0 c52 0 69 16 64 62 -3 32 -4 33 -55 36 l-53 3
0 -50z"/>
<path d="M3500 3764 l0 -45 51 3 c57 3 74 23 58 66 -7 19 -16 22 -59 22 l-50
0 0 -46z"/>
<path d="M4402 3718 c-25 -25 -13 -36 31 -31 50 7 49 6 41 27 -7 19 -54 22
-72 4z"/>
<path d="M5406 3708 c-33 -47 -9 -128 38 -128 13 0 29 7 36 15 18 21 18 98 1
118 -19 24 -57 21 -75 -5z"/>
<path d="M6430 3711 c-15 -30 -12 -97 6 -115 36 -37 84 -2 84 62 0 49 -16 72
-50 72 -19 0 -33 -7 -40 -19z"/>
</g>
</svg>
